#Comment line ignore any data following # character 
#Hierarchical Translation and Rotation (.htr) file 
[Header]	
#Header keywords are followed by a single value 
FileType HTR		#Single word string
DataType HTRS		#Translation followed by rotation and scale data
FileVersion 1		#integer
NumSegments 84		#integer
NumFrames 2		#integer
DataFrameRate 30		#integer, data frame rate in this file
EulerRotationOrder ZYX
CalibrationUnits mm
RotationUnits Degrees
GlobalAxisofGravity Y
BoneLengthAxis Y
ScaleFactor 1.00
[SegmentNames&Hierarchy]
#CHILD	PARENT
MASTER GLOBAL
root MASTER
chest root
L_mid_tent01 root
R_mid_tent01 root
spine01 root
Bip01_Neck chest
L_humerus chest
R_humerus chest
weapon_bone chest
Bip01_Head Bip01_Neck
eye_left_bone Bip01_Head
eye_right_bone Bip01_Head
L_forearm L_humerus
L_front_hand L_forearm
L_weapon_bone L_forearm
L_front_hand01_01 L_front_hand
L_front_hand02_01 L_front_hand
L_front_hand03_01 L_front_hand
L_front_hand01_02 L_front_hand01_01
L_front_hand02_02 L_front_hand02_01
L_front_hand03_02 L_front_hand03_01
R_forearm R_humerus
R_front_hand R_forearm
R_weapon_bone R_forearm
R_front_hand01_01 R_front_hand
R_front_hand02_01 R_front_hand
R_front_hand03_01 R_front_hand
R_front_hand01_02 R_front_hand01_01
R_front_hand02_02 R_front_hand02_01
R_front_hand03_02 R_front_hand03_01
null_rope01_connect L_mid_tent01
Rope1_Seg01 null_rope01_connect
Rope1_Seg02 Rope1_Seg01
Rope1_Seg03 Rope1_Seg02
Rope1_Seg04 Rope1_Seg03
Rope1_Seg05 Rope1_Seg04
Rope1_Seg06 Rope1_Seg05
Rope1_Seg07 Rope1_Seg06
Rope1_Seg09 Rope1_Seg07
L_mid_hand01 Rope1_Seg09
L_mid_hand02 Rope1_Seg09
L_mid_hand03 Rope1_Seg09
null_rope02_connect R_mid_tent01
Rope2_Seg01 null_rope02_connect
Rope2_Seg02 Rope2_Seg01
Rope2_Seg03 Rope2_Seg02
Rope2_Seg04 Rope2_Seg03
Rope2_Seg05 Rope2_Seg04
Rope2_Seg06 Rope2_Seg05
Rope2_Seg07 Rope2_Seg06
Rope2_Seg09 Rope2_Seg07
R_mid_hand01 Rope2_Seg09
R_mid_hand02 Rope2_Seg09
R_mid_hand03 Rope2_Seg09
spine02 spine01
spine03 spine02
pelvis spine03
null_rope03_connect pelvis
null_rope04_connect pelvis
Rope3_Seg01 null_rope03_connect
Rope3_Seg02 Rope3_Seg01
Rope3_Seg03 Rope3_Seg02
Rope3_Seg04 Rope3_Seg03
Rope3_Seg05 Rope3_Seg04
Rope3_Seg06 Rope3_Seg05
Rope3_Seg07 Rope3_Seg06
Rope3_Seg08 Rope3_Seg07
Rope3_Seg09 Rope3_Seg08
R_rear_hand01 Rope3_Seg09
R_rear_hand02 Rope3_Seg09
R_rear_hand03 Rope3_Seg09
Rope4_Seg01 null_rope04_connect
Rope4_Seg02 Rope4_Seg01
Rope4_Seg03 Rope4_Seg02
Rope4_Seg04 Rope4_Seg03
Rope4_Seg05 Rope4_Seg04
Rope4_Seg06 Rope4_Seg05
Rope4_Seg07 Rope4_Seg06
Rope4_Seg08 Rope4_Seg07
Rope4_Seg09 Rope4_Seg08
L_rear_hand01 Rope4_Seg09
L_rear_hand02 Rope4_Seg09
L_rear_hand03 Rope4_Seg09
[BasePosition]
#SegmentName Tx, Ty, Tz, Rx, Ry, Rz, BoneLength
MASTER 0.000000 0.000000 0.000000 -90.000000 0.000000 0.000000 10.000000 
root 0.000000 0.000000 0.000000 0.000000 0.000000 0.000000 10.000000 
chest 0.000000 0.000000 0.000000 0.000000 0.000000 0.000000 10.000000 
L_mid_tent01 0.000000 0.000000 0.000000 0.000000 0.000000 0.000000 10.000000 
R_mid_tent01 0.000000 0.000000 0.000000 0.000000 0.000000 0.000000 10.000000 
spine01 0.000000 0.000000 0.000000 0.000000 0.000000 0.000000 10.000000 
Bip01_Neck 0.000000 0.000000 0.000000 0.000000 0.000000 0.000000 10.000000 
L_humerus 0.000000 0.000000 0.000000 0.000000 0.000000 0.000000 10.000000 
R_humerus 0.000000 0.000000 0.000000 0.000000 0.000000 0.000000 10.000000 
weapon_bone 0.000000 0.000000 0.000000 0.000000 0.000000 0.000000 10.000000 
Bip01_Head 0.000000 0.000000 0.000000 0.000000 0.000000 0.000000 10.000000 
eye_left_bone 0.000000 0.000000 0.000000 0.000000 0.000000 0.000000 10.000000 
eye_right_bone 0.000000 0.000000 0.000000 0.000000 0.000000 0.000000 10.000000 
L_forearm 0.000000 0.000000 0.000000 0.000000 0.000000 0.000000 10.000000 
L_front_hand 0.000000 0.000000 0.000000 0.000000 0.000000 0.000000 10.000000 
L_weapon_bone 0.000000 0.000000 0.000000 0.000000 0.000000 0.000000 10.000000 
L_front_hand01_01 0.000000 0.000000 0.000000 0.000000 0.000000 0.000000 10.000000 
L_front_hand02_01 0.000000 0.000000 0.000000 0.000000 0.000000 0.000000 10.000000 
L_front_hand03_01 0.000000 0.000000 0.000000 0.000000 0.000000 0.000000 10.000000 
L_front_hand01_02 0.000000 0.000000 0.000000 0.000000 0.000000 0.000000 10.000000 
L_front_hand02_02 0.000000 0.000000 0.000000 0.000000 0.000000 0.000000 10.000000 
L_front_hand03_02 0.000000 0.000000 0.000000 0.000000 0.000000 0.000000 10.000000 
R_forearm 0.000000 0.000000 0.000000 0.000000 0.000000 0.000000 10.000000 
R_front_hand 0.000000 0.000000 0.000000 0.000000 0.000000 0.000000 10.000000 
R_weapon_bone 0.000000 0.000000 0.000000 0.000000 0.000000 0.000000 10.000000 
R_front_hand01_01 0.000000 0.000000 0.000000 0.000000 0.000000 0.000000 10.000000 
R_front_hand02_01 0.000000 0.000000 0.000000 0.000000 0.000000 0.000000 10.000000 
R_front_hand03_01 0.000000 0.000000 0.000000 0.000000 0.000000 0.000000 10.000000 
R_front_hand01_02 0.000000 0.000000 0.000000 0.000000 0.000000 0.000000 10.000000 
R_front_hand02_02 0.000000 0.000000 0.000000 0.000000 0.000000 0.000000 10.000000 
R_front_hand03_02 0.000000 0.000000 0.000000 0.000000 0.000000 0.000000 10.000000 
null_rope01_connect 0.000000 0.000000 0.000000 0.000000 0.000000 0.000000 10.000000 
Rope1_Seg01 0.000000 0.000000 0.000000 0.000000 0.000000 0.000000 10.000000 
Rope1_Seg02 0.000000 0.000000 0.000000 0.000000 0.000000 0.000000 10.000000 
Rope1_Seg03 0.000000 0.000000 0.000000 0.000000 0.000000 0.000000 10.000000 
Rope1_Seg04 0.000000 0.000000 0.000000 0.000000 0.000000 0.000000 10.000000 
Rope1_Seg05 0.000000 0.000000 0.000000 0.000000 0.000000 0.000000 10.000000 
Rope1_Seg06 0.000000 0.000000 0.000000 0.000000 0.000000 0.000000 10.000000 
Rope1_Seg07 0.000000 0.000000 0.000000 0.000000 0.000000 0.000000 10.000000 
Rope1_Seg09 0.000000 0.000000 0.000000 0.000000 0.000000 0.000000 10.000000 
L_mid_hand01 0.000000 0.000000 0.000000 0.000000 0.000000 0.000000 10.000000 
L_mid_hand02 0.000000 0.000000 0.000000 0.000000 0.000000 0.000000 10.000000 
L_mid_hand03 0.000000 0.000000 0.000000 0.000000 0.000000 0.000000 10.000000 
null_rope02_connect 0.000000 0.000000 0.000000 0.000000 0.000000 0.000000 10.000000 
Rope2_Seg01 0.000000 0.000000 0.000000 0.000000 0.000000 0.000000 10.000000 
Rope2_Seg02 0.000000 0.000000 0.000000 0.000000 0.000000 0.000000 10.000000 
Rope2_Seg03 0.000000 0.000000 0.000000 0.000000 0.000000 0.000000 10.000000 
Rope2_Seg04 0.000000 0.000000 0.000000 0.000000 0.000000 0.000000 10.000000 
Rope2_Seg05 0.000000 0.000000 0.000000 0.000000 0.000000 0.000000 10.000000 
Rope2_Seg06 0.000000 0.000000 0.000000 0.000000 0.000000 0.000000 10.000000 
Rope2_Seg07 0.000000 0.000000 0.000000 0.000000 0.000000 0.000000 10.000000 
Rope2_Seg09 0.000000 0.000000 0.000000 0.000000 0.000000 0.000000 10.000000 
R_mid_hand01 0.000000 0.000000 0.000000 0.000000 0.000000 0.000000 10.000000 
R_mid_hand02 0.000000 0.000000 0.000000 0.000000 0.000000 0.000000 10.000000 
R_mid_hand03 0.000000 0.000000 0.000000 0.000000 0.000000 0.000000 10.000000 
spine02 0.000000 0.000000 0.000000 0.000000 0.000000 0.000000 10.000000 
spine03 0.000000 0.000000 0.000000 0.000000 0.000000 0.000000 10.000000 
pelvis 0.000000 0.000000 0.000000 0.000000 0.000000 0.000000 10.000000 
null_rope03_connect 0.000000 0.000000 0.000000 0.000000 0.000000 0.000000 10.000000 
null_rope04_connect 0.000000 0.000000 0.000000 0.000000 0.000000 0.000000 10.000000 
Rope3_Seg01 0.000000 0.000000 0.000000 0.000000 0.000000 0.000000 10.000000 
Rope3_Seg02 0.000000 0.000000 0.000000 0.000000 0.000000 0.000000 10.000000 
Rope3_Seg03 0.000000 0.000000 0.000000 0.000000 0.000000 0.000000 10.000000 
Rope3_Seg04 0.000000 0.000000 0.000000 0.000000 0.000000 0.000000 10.000000 
Rope3_Seg05 0.000000 0.000000 0.000000 0.000000 0.000000 0.000000 10.000000 
Rope3_Seg06 0.000000 0.000000 0.000000 0.000000 0.000000 0.000000 10.000000 
Rope3_Seg07 0.000000 0.000000 0.000000 0.000000 0.000000 0.000000 10.000000 
Rope3_Seg08 0.000000 0.000000 0.000000 0.000000 0.000000 0.000000 10.000000 
Rope3_Seg09 0.000000 0.000000 0.000000 0.000000 0.000000 0.000000 10.000000 
R_rear_hand01 0.000000 0.000000 0.000000 0.000000 0.000000 0.000000 10.000000 
R_rear_hand02 0.000000 0.000000 0.000000 0.000000 0.000000 0.000000 10.000000 
R_rear_hand03 0.000000 0.000000 0.000000 0.000000 0.000000 0.000000 10.000000 
Rope4_Seg01 0.000000 0.000000 0.000000 0.000000 0.000000 0.000000 10.000000 
Rope4_Seg02 0.000000 0.000000 0.000000 0.000000 0.000000 0.000000 10.000000 
Rope4_Seg03 0.000000 0.000000 0.000000 0.000000 0.000000 0.000000 10.000000 
Rope4_Seg04 0.000000 0.000000 0.000000 0.000000 0.000000 0.000000 10.000000 
Rope4_Seg05 0.000000 0.000000 0.000000 0.000000 0.000000 0.000000 10.000000 
Rope4_Seg06 0.000000 0.000000 0.000000 0.000000 0.000000 0.000000 10.000000 
Rope4_Seg07 0.000000 0.000000 0.000000 0.000000 0.000000 0.000000 10.000000 
Rope4_Seg08 0.000000 0.000000 0.000000 0.000000 0.000000 0.000000 10.000000 
Rope4_Seg09 0.000000 0.000000 0.000000 0.000000 0.000000 0.000000 10.000000 
L_rear_hand01 0.000000 0.000000 0.000000 0.000000 0.000000 0.000000 10.000000 
L_rear_hand02 0.000000 0.000000 0.000000 0.000000 0.000000 0.000000 10.000000 
L_rear_hand03 0.000000 0.000000 0.000000 0.000000 0.000000 0.000000 10.000000 
#Beginning of Data. Separated by tabs
#Fr	Tx	Ty	Tz	Rx	Ry	Rz	SF
[MASTER]
5 1118.796753 0.000169 0.000000 0.001738 0.001578 5.508332 1118.796753
6 1581.856812 0.000239 0.000000 0.001756 0.001558 6.830750 1581.856934
[root]
5 -24.119949 -62.822109 1023.876404 -99.150925 -30.926476 -91.148819 1026.085449
6 -28.785858 -62.822098 904.845642 -81.503151 -33.324738 -100.853142 907.480530
[chest]
5 -84.512650 -34.090519 0.000000 -31.383425 20.261663 169.261459 91.129311
6 -84.512650 -34.090519 0.000000 -19.055008 27.496897 175.140518 91.129311
[L_mid_tent01]
5 27.299500 22.177504 -249.917984 -0.847012 23.289257 68.410172 252.380859
6 27.299515 22.177504 -249.917999 -2.056936 5.246985 53.711815 252.380875
[R_mid_tent01]
5 23.228794 24.509907 226.238495 166.759521 -36.070358 83.464233 228.744751
6 23.228794 24.509907 226.238495 172.739304 -20.810522 80.321129 228.744751
[spine01]
5 -0.361383 -0.195265 0.000000 0.735288 0.451415 14.807389 0.410763
6 -0.361383 -0.195265 0.000000 0.697750 0.450664 14.624316 0.410763
[Bip01_Neck]
5 165.484543 71.581718 0.000119 175.896118 1.177290 24.871185 180.302734
6 165.484543 71.581718 0.000119 175.896118 1.177290 24.871183 180.302734
[L_humerus]
5 -13.983130 -135.272980 -120.471481 -163.153137 81.335503 -77.700546 181.680161
6 -13.983130 -135.272980 -120.471481 -161.922424 81.287422 -76.695396 181.680161
[R_humerus]
5 -13.983309 -135.273102 125.287651 -170.937332 -69.484444 -94.118294 184.909012
6 -13.983309 -135.273102 125.287651 -171.506271 -69.501091 -93.763817 184.909012
[weapon_bone]
5 235.964890 -300.705902 0.000000 0.000000 -89.951546 -128.212341 382.234833
6 235.964890 -300.705902 0.000000 0.000000 -89.951546 -128.212341 382.234833
[Bip01_Head]
5 258.006500 114.359467 -22.458496 1.648143 5.786176 -64.626732 283.107452
6 257.061554 115.709526 -27.189178 1.456638 5.736691 -65.185738 283.211212
[eye_left_bone]
5 -24.626970 125.451866 -64.772606 0.000000 -90.000000 -99.840431 143.318359
6 -24.626970 125.451866 -64.772606 0.000000 -90.000000 -99.840431 143.318359
[eye_right_bone]
5 -24.626970 125.451866 64.327362 0.000000 -89.960434 80.159386 143.117676
6 -24.626970 125.451866 64.327362 0.000000 -89.960434 80.159386 143.117676
[L_forearm]
5 322.776093 0.000000 -0.000119 0.000587 0.002273 -61.057411 322.776093
6 322.776093 0.000000 -0.000119 0.000556 0.002280 -62.590763 322.776093
[L_front_hand]
5 241.149185 -0.042021 -3.300071 -179.391541 -2.184264 -7.038593 241.171753
6 241.149185 -0.042021 -3.300071 -179.548111 -2.221341 -2.975422 241.171753
[L_weapon_bone]
5 156.183838 0.000000 0.000000 0.002028 0.001182 29.501062 156.183838
6 156.183838 0.000000 0.000000 0.002099 0.001050 36.876877 156.183838
[L_front_hand01_01]
5 86.095154 20.947098 -0.655860 -0.365397 -0.478071 75.098351 88.609184
6 86.095154 20.947098 -0.655860 -0.366594 -0.477154 75.385574 88.609184
[L_front_hand02_01]
5 86.935165 -11.437475 24.513514 153.962997 -59.762066 -60.859097 91.046425
6 86.935165 -11.437475 24.513514 154.403519 -59.888931 -61.371990 91.046425
[L_front_hand03_01]
5 86.637497 -14.123976 -20.424902 -153.509613 57.991444 -62.227245 90.126129
6 86.637497 -14.123976 -20.424902 -153.913849 58.118122 -62.702866 90.126129
[L_front_hand01_02]
5 71.020905 -0.000179 0.000030 0.001534 0.001777 -8.378850 71.020905
6 71.020905 -0.000179 0.000030 0.001534 0.001777 -8.378850 71.020905
[L_front_hand02_02]
5 71.020927 -0.000119 0.000060 0.001534 0.001777 -8.378850 71.020927
6 71.020927 -0.000119 0.000060 0.001534 0.001777 -8.378850 71.020927
[L_front_hand03_02]
5 71.020905 -0.000060 0.000060 0.001534 0.001777 -8.378850 71.020905
6 71.020905 -0.000060 0.000060 0.001534 0.001777 -8.378850 71.020905
[R_forearm]
5 322.776428 -0.000060 0.000030 0.200870 -0.072439 -71.723457 322.776428
6 322.776428 -0.000060 0.000030 0.200820 -0.072578 -71.644142 322.776428
[R_front_hand]
5 238.847015 -0.006795 2.210259 -0.797613 1.531135 -16.327341 238.857239
6 238.847015 -0.006795 2.210259 -0.556124 1.635326 -7.547158 238.857239
[R_weapon_bone]
5 155.664093 0.002503 -0.000030 0.002960 0.002187 -126.528343 155.664078
6 155.664093 0.002503 -0.000030 0.002877 0.002296 -130.797623 155.664078
[R_front_hand01_01]
5 87.624611 14.231146 22.918642 -154.633499 -59.950619 61.746044 91.683487
6 87.624611 14.231146 22.918642 -154.633499 -59.950619 61.746044 91.683487
[R_front_hand02_01]
5 89.356956 14.367283 -19.491137 154.602661 58.302849 63.744389 92.579636
6 89.356956 14.367283 -19.491137 154.602661 58.302849 63.744389 92.579636
[R_front_hand03_01]
5 87.286232 -22.307278 -0.143439 0.162155 -0.423168 -75.767921 90.091743
6 87.286232 -22.307278 -0.143439 0.162155 -0.423168 -75.767921 90.091743
[R_front_hand01_02]
5 71.020905 0.000060 0.000119 0.001777 0.001534 8.377220 71.020905
6 71.020905 0.000060 0.000119 0.001777 0.001534 8.377220 71.020905
[R_front_hand02_02]
5 71.020844 -0.000030 -0.000119 0.001777 0.001534 8.377220 71.020836
6 71.020844 -0.000030 -0.000119 0.001777 0.001534 8.377220 71.020836
[R_front_hand03_02]
5 71.020905 0.000000 0.000030 0.001777 0.001534 8.377220 71.020905
6 71.020905 0.000000 0.000030 0.001777 0.001534 8.377220 71.020905
[null_rope01_connect]
5 328.732483 0.000000 -0.000238 -140.147415 -60.885933 -165.995163 328.732483
6 328.732483 0.000000 -0.000238 -46.688602 -85.125244 116.215424 328.732483
[Rope1_Seg01]
5 0.000000 0.000000 0.000000 108.611847 7.565112 -157.588699 0.000000
6 0.000000 0.000000 0.000000 87.178886 -3.886467 -144.677933 0.000000
[Rope1_Seg02]
5 139.999863 -0.000179 0.000000 8.450880 -10.292516 -0.880297 139.999863
6 139.999863 -0.000179 0.000000 11.010817 -8.878091 -3.646727 139.999863
[Rope1_Seg03]
5 139.999924 0.000060 -0.000060 7.332560 -12.778075 -0.047555 139.999924
6 139.999924 0.000060 -0.000060 9.662058 -11.045699 -2.246189 139.999924
[Rope1_Seg04]
5 139.999924 -0.000060 -0.000119 5.798973 -14.838333 0.234682 139.999924
6 139.999924 -0.000060 -0.000119 7.054231 -12.484145 -0.257465 139.999924
[Rope1_Seg05]
5 139.999832 0.000119 -0.000060 -0.894924 -9.782240 10.910748 139.999832
6 139.999832 0.000119 -0.000060 4.035526 -10.766422 0.799302 139.999832
[Rope1_Seg06]
5 139.999954 0.000119 -0.000060 -0.522800 -4.344505 8.576873 139.999954
6 139.999954 0.000119 -0.000060 1.986909 -7.162227 0.665332 139.999954
[Rope1_Seg07]
5 139.999985 0.000060 0.000000 -0.088800 -3.113283 3.873764 139.999985
6 139.999985 0.000060 0.000000 1.081785 -5.244971 0.739343 139.999985
[Rope1_Seg09]
5 121.602913 0.000119 -0.000089 -89.793175 -1.359789 0.847147 121.602913
6 121.602913 0.000119 -0.000089 -89.793175 -1.359789 0.847147 121.602913
[L_mid_hand01]
5 103.859421 1.038730 8.195221 111.431297 -47.263840 -16.612019 104.187431
6 103.859421 1.038730 8.195221 111.431305 -47.263851 -16.612017 104.187431
[L_mid_hand02]
5 105.572853 -4.139662 -10.864139 -150.709808 35.166882 -45.161087 106.211075
6 105.572853 -4.139662 -10.864139 -150.709808 35.166882 -45.161087 106.211075
[L_mid_hand03]
5 104.641464 17.579376 -3.913581 -12.649597 13.975001 50.985863 106.179977
6 104.641464 17.579376 -3.913581 -12.649596 13.974999 50.985855 106.179977
[null_rope02_connect]
5 328.732849 0.000179 -0.000119 -111.017372 55.645981 29.137945 328.732849
6 328.732849 0.000179 -0.000119 -129.437454 63.536503 4.796551 328.732849
[Rope2_Seg01]
5 -0.000070 0.000134 0.000153 -51.246025 13.321317 -10.981565 0.000215
6 -0.000069 0.000134 0.000153 -74.908203 24.620106 -17.670181 0.000214
[Rope2_Seg02]
5 139.999741 -0.000060 -0.000119 -20.135889 -16.738533 30.423975 139.999756
6 139.999741 -0.000060 -0.000119 -5.261200 -21.358753 13.158884 139.999756
[Rope2_Seg03]
5 140.000107 0.000030 0.000000 -4.658393 -16.690701 16.408030 140.000107
6 140.000107 0.000030 0.000000 -1.144150 -24.683323 9.603518 140.000107
[Rope2_Seg04]
5 139.999802 0.000000 -0.000060 -2.762082 -22.018480 21.649227 139.999802
6 139.999802 0.000000 -0.000060 -2.221275 -17.833914 12.419655 139.999802
[Rope2_Seg05]
5 139.999985 -0.000060 0.000119 5.331044 -20.966944 21.816792 139.999985
6 139.999985 -0.000060 0.000119 1.193051 -25.470549 31.299370 139.999985
[Rope2_Seg06]
5 139.999893 -0.000030 -0.000119 8.153170 -6.565693 8.915184 139.999893
6 139.999893 -0.000030 -0.000119 13.751361 -11.809566 17.223452 139.999893
[Rope2_Seg07]
5 139.999893 0.000060 -0.000060 6.883725 -2.689756 5.080160 139.999893
6 139.999893 0.000060 -0.000060 11.504837 -2.993337 7.856706 139.999893
[Rope2_Seg09]
5 121.338966 0.000089 -0.000060 33.793236 -1.359788 -0.847141 121.338966
6 121.338966 0.000089 -0.000060 33.793236 -1.359788 -0.847141 121.338966
[R_mid_hand01]
5 104.680779 11.144459 -10.335981 -34.269653 35.095993 42.885235 105.778534
6 104.680779 11.144459 -10.335981 -34.269650 35.095989 42.885235 105.778534
[R_mid_hand02]
5 104.070427 2.443552 8.231699 68.449066 -47.537163 16.779839 104.424065
6 104.070427 2.443552 8.231699 68.449066 -47.537163 16.779839 104.424065
[R_mid_hand03]
5 106.028137 -11.221827 -5.996406 -171.106766 13.128626 -52.726494 106.788818
6 106.028137 -11.221827 -5.996406 -171.106766 13.128626 -52.726494 106.788818
[spine02]
5 129.756927 0.001550 0.000119 -0.236145 -4.176188 -4.546471 129.756927
6 129.756927 0.001550 0.000119 -0.229720 -4.191110 -4.638326 129.756927
[spine03]
5 78.645187 0.081757 -4.592066 0.709795 3.728275 -1.811170 78.779175
6 78.653030 0.080376 -4.515380 0.821680 3.484156 -0.695772 78.782570
[pelvis]
5 169.435242 0.051022 0.000000 -133.188263 -6.825575 3.329607 169.435257
6 169.435242 0.051022 0.000000 -154.057739 -4.322495 7.072036 169.435257
[null_rope03_connect]
5 -1.257226 -2.466202 137.391083 -151.034866 48.664379 -76.239548 137.418976
6 -1.257226 -2.466202 137.391083 -157.549149 55.682201 -84.381607 137.418976
[null_rope04_connect]
5 -1.259640 -2.480268 -137.844437 -151.034866 48.664379 -76.239548 137.872513
6 -1.259640 -2.480268 -137.844437 -157.549149 55.682201 -84.381607 137.872513
[Rope3_Seg01]
5 0.000000 0.000000 0.000000 -132.322647 8.548223 -91.915642 0.000000
6 0.000000 0.000000 0.000000 -132.479218 7.610419 -103.529678 0.000000
[Rope3_Seg02]
5 139.999924 -0.000119 0.000060 -18.103075 -11.839169 33.296680 139.999924
6 139.999924 -0.000119 0.000060 -22.782719 -5.619987 33.079830 139.999924
[Rope3_Seg03]
5 139.999924 -0.000119 0.000119 -49.405704 -29.904133 44.947033 139.999924
6 139.999924 -0.000119 0.000119 -60.255970 -25.409012 40.539215 139.999924
[Rope3_Seg04]
5 139.999924 0.000119 0.000000 -29.326090 -30.460588 24.996782 139.999924
6 139.999924 0.000119 0.000000 -33.689323 -34.334873 20.079861 139.999924
[Rope3_Seg05]
5 139.999924 -0.000238 0.000060 -5.728328 -12.410888 3.743515 139.999924
6 139.999924 -0.000238 0.000060 -5.092358 -13.277169 0.759209 139.999924
[Rope3_Seg06]
5 139.999893 -0.000119 -0.000060 -1.211242 -4.706833 0.605858 139.999893
6 139.999893 -0.000119 -0.000060 -0.858529 -4.771299 -0.502135 139.999893
[Rope3_Seg07]
5 139.999771 0.000060 -0.000119 -0.362005 -2.826630 0.302475 139.999771
6 139.999771 0.000060 -0.000119 -0.143104 -2.847795 -0.346039 139.999771
[Rope3_Seg08]
5 139.999985 -0.000060 0.000000 0.063612 -1.640460 0.163973 139.999985
6 139.999985 -0.000060 0.000000 0.197502 -1.649912 -0.203980 139.999985
[Rope3_Seg09]
5 90.185997 -0.000179 -0.000060 89.793228 -1.359877 -0.847183 90.185997
6 90.185997 -0.000179 -0.000060 89.793228 -1.359877 -0.847183 90.185997
[R_rear_hand01]
5 103.366196 -6.073594 -10.757982 -166.970291 21.129854 -46.704182 104.101845
6 103.366196 -6.073594 -10.757982 -166.970291 21.129850 -46.704182 104.101845
[R_rear_hand02]
5 100.509819 12.039542 -7.992327 -28.148870 27.804201 44.102722 101.543350
6 100.509819 12.039542 -7.992327 -28.148869 27.804199 44.102722 101.543350
[R_rear_hand03]
5 101.539970 5.215704 5.435467 81.628380 -47.127724 10.016966 101.819031
6 101.539970 5.215704 5.435467 81.628380 -47.127724 10.016966 101.819031
[Rope4_Seg01]
5 -0.000018 -0.000064 -0.000153 19.688011 -38.906677 -57.668709 0.000166
6 -0.000017 -0.000061 -0.000153 20.710018 -30.753952 -55.679932 0.000165
[Rope4_Seg02]
5 139.999985 0.000060 0.000119 -7.920699 1.744408 19.672720 139.999985
6 139.999985 0.000060 0.000119 -11.166611 3.471514 20.943132 139.999985
[Rope4_Seg03]
5 139.999924 0.000000 -0.000238 -26.883108 -1.040360 38.177864 139.999924
6 139.999924 0.000000 -0.000238 -31.350569 -0.460916 34.280186 139.999924
[Rope4_Seg04]
5 139.999985 0.000000 0.000119 -23.836115 -11.333432 26.149706 139.999985
6 139.999985 0.000000 0.000119 -23.346174 -10.885530 20.836130 139.999985
[Rope4_Seg05]
5 139.999802 -0.000060 -0.000119 -7.221483 -12.521369 6.919617 139.999802
6 139.999802 -0.000060 -0.000119 -8.248981 -12.688189 6.290408 139.999802
[Rope4_Seg06]
5 139.999924 0.000000 0.000060 -3.575722 -17.704990 2.682144 139.999924
6 139.999924 0.000000 0.000060 -4.858734 -19.883442 2.879178 139.999924
[Rope4_Seg07]
5 139.999802 0.000000 0.000000 -0.777341 -15.409836 2.068346 139.999802
6 139.999802 0.000000 0.000000 -1.133738 -17.726110 1.695245 139.999802
[Rope4_Seg08]
5 139.999924 0.000000 0.000119 -1.051676 -8.331792 1.456904 139.999924
6 139.999924 0.000000 0.000119 -1.040144 -9.456298 1.075300 139.999924
[Rope4_Seg09]
5 90.185791 0.000060 0.000060 -135.617828 2.228885 0.850567 90.185791
6 90.185791 0.000060 0.000060 -135.617828 2.228885 0.850567 90.185791
[L_rear_hand01]
5 101.696655 -8.392275 -7.654577 -27.705481 -28.251705 134.947800 102.329041
6 101.696655 -8.392275 -7.654577 -27.705481 -28.251705 134.947800 102.329041
[L_rear_hand02]
5 102.726799 -1.568258 5.773216 81.477219 48.065086 169.775513 102.900848
6 102.726799 -1.568258 5.773216 81.477219 48.065086 169.775513 102.900848
[L_rear_hand03]
5 104.552910 9.721220 -10.420293 -167.330078 -21.338425 -132.303940 105.519653
6 104.552910 9.721220 -10.420293 -167.330078 -21.338425 -132.303940 105.519653
